<svg xmlns="http://www.w3.org/2000/svg" width="174" height="200" viewBox="0 0 174 200">
    <g fill="none" fill-rule="evenodd">
        <g>
            <circle cx="134.114" cy="106.02" r="39.799" fill="#002D5B"/>
            <circle cx="39.799" cy="106.02" r="39.799" fill="#002D5B"/>
            <g transform="translate(10.702 90.97)">
                <circle cx="133.11" cy="17.391" r="17.391" fill="#CA9D52"/>
                <circle cx="132.776" cy="17.057" r="12.375" fill="#EEBA64"/>
                <circle cx="17.391" cy="18.729" r="17.391" fill="#C59A52" fill-opacity=".96"/>
                <circle cx="17.726" cy="18.395" r="12.375" fill="#EEBA64"/>
            </g>
            <rect width="113.043" height="161.204" x="29.431" y="38.796" fill="#EEBA64" rx="56.522"/>
            <circle cx="51.171" cy="53.177" r="39.799" fill="#002D5B"/>
            <circle cx="83.278" cy="39.799" r="39.799" fill="#002D5B"/>
            <circle cx="121.405" cy="55.853" r="39.799" fill="#002D5B"/>
            <circle cx="58.528" cy="111.371" r="6.355" fill="#717171"/>
            <circle cx="110.702" cy="111.371" r="6.355" fill="#717171"/>
            <path fill="#717171" d="M85.117 98.328a9.53 9.53 0 0 1 9.532 9.535v30.486c0 4.218-4.267 7.638-9.532 7.638-5.264 0-9.532-4.272-9.532-9.53v-28.6c0-5.263 4.267-9.53 9.532-9.53z"/>
            <ellipse cx="15.719" cy="74.582" fill="#002D5B" rx="12.375" ry="13.043"/>
            <ellipse cx="156.187" cy="74.582" fill="#002D5B" rx="12.375" ry="13.043"/>
            <path fill="#002D5B" d="M106.7 147.366c2.484-3.591 6.576-3.642 7.467-2.415 0 0 3.677 1.28 1.001 8.638s-11.037 14.196-15.385 16.722c-4.347 2.526-8.695 4.682-15.384 4.682-6.69 0-8.654-3.469-8.654-3.469-1.522-2.095.708-4.589 4.939-5.62 0 0 11.407-2.37 15.086-4.957 3.68-2.588 10.93-13.58 10.93-13.58z"/>
        </g>
        <path d="M-13 0h200v200H-13z"/>
    </g>
</svg>
