<svg xmlns="http://www.w3.org/2000/svg" xmlns:xlink="http://www.w3.org/1999/xlink" width="166" height="200" viewBox="0 0 166 200">
    <defs>
        <path id="a" d="M13.818 15.54c7.632 0 13.818-6.187 13.818-13.819 0-3.853-6.842-.038-13.818 0S0-2.057 0 1.721c0 7.632 6.187 13.818 13.818 13.818z"/>
        <path id="b" d="M13.818 16.266c7.632 0 13.818-6.186 13.818-13.818 0-3.853-6.842-2.486-13.818-2.448C6.842.038 0-1.33 0 2.448c0 7.632 6.187 13.818 13.818 13.818z"/>
        <rect id="d" width="28.364" height="7.273" x="36.364" y="61.818" rx="3.636"/>
        <rect id="e" width="28.364" height="7.273" x="101.091" y="61.818" rx="3.636"/>
    </defs>
    <g fill="none" fill-rule="evenodd">
        <g>
            <g transform="translate(0 72.727)">
                <circle cx="13.818" cy="20.364" r="13.818" fill="#D85151"/>
                <circle cx="13.818" cy="20.364" r="8.793" fill="#EEBA64"/>
                <circle cx="49.455" cy="5.818" r="5.818" fill="#EEBA64"/>
                <circle cx="49.455" cy="5.818" r="5.818" fill="#EEBA64"/>
            </g>
            <g transform="translate(137.455 78.545)">
                <circle cx="13.818" cy="13.818" r="13.818" fill="#D85151"/>
                <circle cx="13.818" cy="13.818" r="8.793" fill="#EEBA64"/>
            </g>
            <rect width="122.909" height="175.273" x="21.091" y="24.727" fill="#EEBA64" rx="61.455"/>
            <g transform="translate(69.09 157.818)">
                <use fill="#717171" xlink:href="#a"/>
                <mask id="c" fill="#fff">
                    <use xlink:href="#b"/>
                </mask>
                <use fill="#717171" xlink:href="#b"/>
                <circle cx="13.884" cy="16.793" r="8.793" fill="#D85151" mask="url(#c)"/>
            </g>
            <path fill="#FFF" d="M68.364 150.545h29.091v7.273H68.364z"/>
            <rect width="32.727" height="64.554" x="51.262" y="112.334" fill="#D85151" rx="16.364" transform="rotate(53 67.625 144.61)"/>
            <rect width="32.727" height="64.781" x="83.109" y="110.876" fill="#D85151" rx="16.364" transform="scale(-1 1) rotate(54 0 -51.96)"/>
            <path fill="#717171" d="M95.65 93.88c-.117-7.392-5.667-13.28-12.4-13.15-6.731.128-12.093 6.232-11.975 13.617l.51 32.132c.118 7.391 5.668 13.278 12.401 13.15 6.731-.13 12.093-6.233 11.975-13.618l-.51-32.132zM121.28 54.135c11.134-.261 20.002-12.587 19.808-27.538-.195-14.948-9.389-26.853-20.512-26.593L72.175 1.138C61.04 1.4 52.172 13.725 52.367 28.676c.194 14.947 9.388 26.853 20.512 26.593l48.4-1.134z"/>
            <use fill="#717171" xlink:href="#d"/>
            <rect width="27.364" height="6.273" x="36.864" y="62.318" stroke="#979797" rx="3.136"/>
            <use fill="#717171" xlink:href="#e"/>
            <rect width="27.364" height="6.273" x="101.591" y="62.318" stroke="#979797" rx="3.136"/>
            <circle cx="49.455" cy="78.545" r="5.818" fill="#717171"/>
            <circle cx="114.909" cy="78.545" r="5.818" fill="#717171"/>
            <circle cx="42.182" cy="34.182" r="21.091" fill="#717171"/>
            <circle cx="141.091" cy="55.273" r="13.818" fill="#717171"/>
            <circle cx="22.545" cy="55.273" r="13.818" fill="#717171"/>
        </g>
        <path d="M-17 0h200v200H-17z"/>
    </g>
</svg>
