<svg xmlns="http://www.w3.org/2000/svg" xmlns:xlink="http://www.w3.org/1999/xlink" width="186" height="200" viewBox="0 0 186 200">
    <defs>
        <circle id="a" cx="9.091" cy="9.091" r="9.091"/>
        <circle id="b" cx="9.091" cy="9.091" r="9.091"/>
        <circle id="d" cx="9.091" cy="9.091" r="9.091"/>
        <circle id="e" cx="9.091" cy="9.091" r="9.091"/>
        <circle id="g" cx="14.05" cy="14.05" r="14.05"/>
    </defs>
    <g fill="none" fill-rule="evenodd">
        <g>
            <circle cx="164.463" cy="87.397" r="21.488" fill="#CA9D52"/>
            <circle cx="164.05" cy="86.983" r="15.289" fill="#EEBA64"/>
            <circle cx="21.488" cy="89.05" r="21.488" fill="#C59A52" fill-opacity=".96"/>
            <circle cx="21.901" cy="88.636" r="15.289" fill="#EEBA64"/>
            <rect width="139.669" height="199.174" x="23.14" y=".62" fill="#EEBA64" rx="69.835"/>
            <rect width="70.248" height="23.967" x="103.306" y="43.595" fill="#C3D5E9" rx="11.983"/>
            <rect width="70.248" height="23.967" x="14.876" y="43.595" fill="#C3D5E9" rx="11.983"/>
            <g transform="translate(47.934 71.694)">
                <use fill="#D85151" xlink:href="#a"/>
                <mask id="c" fill="#fff">
                    <use xlink:href="#b"/>
                </mask>
                <use fill="#D85151" xlink:href="#b"/>
                <circle cx="54.394" cy="9.091" r="9.091" fill="#FFF" stroke="#979797" mask="url(#c)"/>
            </g>
            <g transform="translate(124.793 71.694)">
                <use fill="#D85151" xlink:href="#d"/>
                <mask id="f" fill="#fff">
                    <use xlink:href="#e"/>
                </mask>
                <use fill="#D85151" xlink:href="#e"/>
                <circle cx="54.394" cy="9.091" r="9.091" fill="#FFF" stroke="#979797" mask="url(#f)"/>
            </g>
            <g transform="translate(79.339 152.686)">
                <mask id="h" fill="#fff">
                    <use xlink:href="#g"/>
                </mask>
                <use fill="#333" xlink:href="#g"/>
                <circle cx="14.05" cy="25.758" r="14.05" fill="#D85151" mask="url(#h)"/>
            </g>
            <path fill="#D8D8D8" d="M51.24 161.777c2.079-21.796 20.438-38.843 42.779-38.843 22.34 0 40.7 17.047 42.779 38.843H51.24z"/>
            <rect width="78.232" height="27.273" x="54.686" y="83.951" fill="#D85151" rx="13.636" transform="rotate(-90 93.802 97.587)"/>
        </g>
        <path d="M-7 0h200v200H-7z"/>
    </g>
</svg>
