<svg xmlns="http://www.w3.org/2000/svg" width="148" height="198" viewBox="0 0 148 198">
    <g fill="none" fill-rule="evenodd">
        <g>
            <g transform="translate(121.951 86.179)">
                <circle cx="12.602" cy="12.602" r="12.602" fill="#002D5B"/>
                <circle cx="12.602" cy="12.602" r="8.537" fill="#FAD495"/>
            </g>
            <g transform="translate(0 86.179)">
                <circle cx="12.602" cy="12.602" r="12.602" fill="#002D5B"/>
                <circle cx="12.602" cy="12.602" r="8.537" fill="#FAD495"/>
            </g>
            <path fill="#FAD495" d="M129.39 140.709c.43 9.153-2.932 18.44-10.041 25.305l-22.895 22.109c-13.11 12.661-34 12.299-46.66-.81l-21.72-22.493c-6.42-6.648-9.49-15.299-9.246-23.862a8.959 8.959 0 0 1-1.704-5.27V39.896c0-4.971 4.033-9 9-9h95.794c4.971 0 9.001 4.033 9.001 9v95.794a8.956 8.956 0 0 1-1.53 5.02z"/>
            <path fill="#EEBA64" d="M129.39 140.709c.43 9.153-2.932 18.44-10.041 25.305l-22.895 22.109c-13.11 12.661-34 12.299-46.66-.81l-21.72-22.493c-6.42-6.648-9.49-15.299-9.246-23.862a8.959 8.959 0 0 1-1.704-5.27V39.896c0-4.971 4.033-9 9-9h95.794c4.971 0 9.001 4.033 9.001 9v95.794a8.956 8.956 0 0 1-1.53 5.02z"/>
            <path fill="#002D5B" d="M122.569 60.516c12.446-.291 22.36-14.07 22.143-30.784-.217-16.71-10.495-30.019-22.93-29.727L67.675 1.272c-12.447.292-22.36 14.07-22.143 30.784.217 16.71 10.495 30.02 22.93 29.728l54.107-1.268zM32.733 70.036c-3.775.027-6.782 1.296-6.716 2.835.066 1.54 3.183 2.765 6.954 2.738l16.41-.116c3.775-.027 6.781-1.296 6.715-2.836-.065-1.539-3.182-2.765-6.954-2.738l-16.41.117zM96.96 70.036c-3.774.027-6.781 1.296-6.715 2.835.066 1.54 3.183 2.765 6.954 2.738l16.41-.116c3.774-.027 6.781-1.296 6.715-2.836-.066-1.539-3.183-2.765-6.954-2.738l-16.41.117z"/>
            <circle cx="30.081" cy="38.211" r="23.577" fill="#002D5B"/>
            <circle cx="41.057" cy="92.276" r="12.602" fill="#002D5B"/>
            <circle cx="105.285" cy="92.276" r="12.602" fill="#002D5B"/>
            <path stroke="#002D5B" stroke-width="9" d="M55.285 149.593s17.886 13.009 36.585-.813"/>
            <path fill="#002D5B" d="M67.735 123.718c.058 5.277 2.818 9.48 6.166 9.388 3.348-.092 6.014-4.45 5.955-9.721l-.254-22.939c-.058-5.277-2.818-9.48-6.166-9.388-3.348.093-6.014 4.45-5.955 9.722l.254 22.938z"/>
        </g>
        <path d="M-26 0h200v200H-26z"/>
    </g>
</svg>
