<svg xmlns="http://www.w3.org/2000/svg" width="198" height="190" viewBox="0 0 198 190">
    <g fill="none" fill-rule="evenodd" transform="translate(0 -10)">
        <circle cx="174.561" cy="107.675" r="22.807" fill="#CA9D52"/>
        <circle cx="174.123" cy="107.237" r="16.228" fill="#EEBA64"/>
        <circle cx="22.807" cy="109.43" r="22.807" fill="#C59A52" fill-opacity=".96"/>
        <circle cx="98.246" cy="123.465" r="76.316" fill="#EEBA64"/>
        <ellipse cx="106.243" cy="144.616" fill="#CA9D52" rx="3.611" ry="3.607"/>
        <ellipse cx="90.453" cy="144.616" fill="#CA9D52" rx="3.611" ry="3.607"/>
        <circle cx="65.789" cy="116.447" r="9.649" fill="#333"/>
        <circle cx="133.333" cy="116.447" r="9.649" fill="#333"/>
        <circle cx="23.246" cy="108.991" r="16.228" fill="#EEBA64"/>
        <circle cx="103.509" cy="165.57" r="10.526" fill="#CA9D52"/>
        <circle cx="114.035" cy="169.079" r="16.667" fill="#D85151"/>
        <circle cx="121.491" cy="173.904" r="10.088" fill="#4990E2"/>
        <path fill="#455A64" fill-opacity=".002" d="M127.21 21.529a25.795 25.795 0 0 1 2.695 25.656 25.802 25.802 0 0 1-20.87 15.163A25.795 25.795 0 0 1 82.77 26.2a25.802 25.802 0 0 1 20.871-15.164A25.795 25.795 0 0 1 127.21 21.53l-1.67 1.213a23.733 23.733 0 1 0-38.4 27.9 23.733 23.733 0 0 0 38.4-27.9l1.67-1.213z"/>
        <path fill="#333" d="M109.035 62.348A25.795 25.795 0 0 1 82.77 26.2l1.886.84a23.733 23.733 0 0 0 24.162 33.255l.216 2.053z"/>
        <path fill="#333" d="M82.771 26.2a25.802 25.802 0 0 1 20.871-15.164A25.795 25.795 0 0 1 127.21 21.53l-1.67 1.213a23.733 23.733 0 0 0-40.882 4.298l-1.886-.84z"/>
    </g>
</svg>
