<svg xmlns="http://www.w3.org/2000/svg" width="156" height="198" viewBox="0 0 156 198">
    <g fill="none" fill-rule="evenodd">
        <g transform="translate(0 -2)">
            <ellipse cx="126.054" cy="121.413" fill="#D8D8D8" stroke="#979797" stroke-width="1.483" rx="7.415" ry="7.434"/>
            <path fill="#717171" d="M0 75.748h155.714V200H0z"/>
            <ellipse cx="126.054" cy="125.661" fill="#EEBA64" stroke="#979797" stroke-width="1.483" rx="8.474" ry="8.496"/>
            <ellipse cx="26.482" cy="125.661" fill="#EEBA64" stroke="#979797" stroke-width="1.483" rx="8.474" ry="8.496"/>
            <rect width="95.335" height="179.475" x="29.66" y="20.525" fill="#EEBA64" rx="47.668"/>
            <path fill="#717171" d="M155.714 92.74V80.32c0-42.991-34.858-77.848-77.857-77.848C34.848 2.472 0 37.326 0 80.32v12.42h155.714z"/>
            <path stroke="#979797" stroke-width="16.313" d="M130.01 44.63L97.235 22.406c13.37 2.64 25.294 10.625 32.777 22.226z"/>
            <g transform="translate(27.541 100.174)">
                <path fill="#D8D8D8" d="M4.156 11.59l9.364-9.043A22.63 22.63 0 0 1 23.982 0c.59 0 1.173.022 1.751.066l2.723 2.82L2.48 27.971l-.883-.914a23.016 23.016 0 0 1-.39-4.224c0-4.088 1.072-7.925 2.949-11.243z"/>
                <path fill="#D85151" d="M20.264 1.062H.921v19.393C3.943 11.318 11.15 4.093 20.264 1.062z"/>
                <ellipse cx="22.923" cy="23.895" stroke="#D85151" stroke-width="4.449" rx="22.775" ry="22.833"/>
            </g>
            <path fill="#D8D8D8" d="M84.512 111.763l9.365-9.043a22.63 22.63 0 0 1 10.462-2.546c.59 0 1.173.022 1.751.066l2.723 2.82-25.976 25.085-.883-.914a23.016 23.016 0 0 1-.39-4.225c0-4.087 1.072-7.924 2.948-11.243z"/>
            <g transform="matrix(-1 0 0 1 126.054 100.174)">
                <path fill="#D85151" d="M20.264 0H.921v19.393C3.943 10.256 11.15 3.031 20.264 0z"/>
                <ellipse cx="22.923" cy="22.833" stroke="#D85151" stroke-width="4.449" rx="22.775" ry="22.833"/>
            </g>
            <path fill="#D85151" d="M73.09 116.104h7.415v6.372H73.09z"/>
            <ellipse cx="51.905" cy="122.475" fill="#717171" rx="4.237" ry="8.496"/>
            <ellipse cx="104.869" cy="122.475" fill="#717171" rx="4.237" ry="8.496"/>
            <ellipse cx="130.292" cy="133.095" fill="#D8D8D8" rx="3.178" ry="3.186"/>
            <ellipse cx="80.505" cy="154.335" fill="#717171" rx="2.119" ry="2.124"/>
            <ellipse cx="23.304" cy="133.095" fill="#D8D8D8" rx="3.178" ry="3.186"/>
            <ellipse cx="72.031" cy="154.335" fill="#717171" rx="2.119" ry="2.124"/>
            <rect width="23.304" height="7.434" x="64.616" y="171.327" fill="#D85151" rx="3.717"/>
            <rect width="23.304" height="7.434" x="64.616" y="175.574" fill="#D85151" rx="3.717"/>
            <path fill="#AE4040" d="M86.835 177.167a3.71 3.71 0 0 1-3.043 1.593H68.745c-1.26 0-2.373-.63-3.043-1.592a3.71 3.71 0 0 1 3.043-1.594h15.047c1.26 0 2.372.63 3.043 1.593z"/>
        </g>
        <path d="M-22-2h200v200H-22z"/>
    </g>
</svg>
